<svg width="820" height="880" viewBox="0 0 820 880" fill="none" xmlns="http://www.w3.org/2000/svg">
  <defs>
    <linearGradient id="bg" x1="138" y1="100" x2="680" y2="786" gradientUnits="userSpaceOnUse">
      <stop stop-color="#111827"/>
      <stop offset="0.54" stop-color="#0F172A"/>
      <stop offset="1" stop-color="#1E1B4B"/>
    </linearGradient>
    <linearGradient id="stroke" x1="160" y1="132" x2="660" y2="752" gradientUnits="userSpaceOnUse">
      <stop stop-color="#F0ABFC"/>
      <stop offset="0.5" stop-color="#818CF8"/>
      <stop offset="1" stop-color="#38BDF8"/>
    </linearGradient>
    <linearGradient id="skin" x1="410" y1="198" x2="410" y2="404" gradientUnits="userSpaceOnUse">
      <stop stop-color="#FCE7F3"/>
      <stop offset="1" stop-color="#FBCFE8"/>
    </linearGradient>
    <linearGradient id="hair" x1="410" y1="172" x2="542" y2="392" gradientUnits="userSpaceOnUse">
      <stop stop-color="#1F1B4D"/>
      <stop offset="1" stop-color="#0F172A"/>
    </linearGradient>
    <linearGradient id="body" x1="260" y1="434" x2="574" y2="688" gradientUnits="userSpaceOnUse">
      <stop stop-color="#A855F7"/>
      <stop offset="0.5" stop-color="#6366F1"/>
      <stop offset="1" stop-color="#38BDF8"/>
    </linearGradient>
    <filter id="blur" x="31" y="15" width="760" height="780" filterUnits="userSpaceOnUse" color-interpolation-filters="sRGB">
      <feGaussianBlur stdDeviation="55"/>
    </filter>
  </defs>

  <rect width="820" height="880" rx="52" fill="#050816"/>
  <g opacity="0.65" filter="url(#blur)">
    <circle cx="292" cy="214" r="138" fill="#D946EF"/>
    <circle cx="572" cy="258" r="132" fill="#6366F1"/>
    <circle cx="414" cy="550" r="162" fill="#0EA5E9"/>
  </g>

  <rect x="160" y="132" width="500" height="620" rx="48" fill="url(#bg)" stroke="url(#stroke)" stroke-opacity="0.42" stroke-width="2"/>
  <rect x="188" y="160" width="444" height="564" rx="36" fill="#081120" fill-opacity="0.7" stroke="white" stroke-opacity="0.08"/>

  <circle cx="410" cy="296" r="112" fill="url(#skin)"/>
  <path d="M293 271C315 171 509 163 539 278C544 298 543 312 538 336C518 314 490 301 458 298C422 294 395 308 355 314C334 318 313 321 286 319C285 303 287 285 293 271Z" fill="url(#hair)"/>
  <path d="M323 321C338 356 369 380 410 380C451 380 483 355 499 322C508 343 511 362 508 391C484 435 449 462 410 462C370 462 336 435 312 391C309 365 313 344 323 321Z" fill="#FBCFE8"/>
  <path d="M260 590C280 490 349 432 410 432C471 432 539 490 560 590V654H260V590Z" fill="url(#body)"/>

  <rect x="250" y="514" width="320" height="140" rx="28" fill="#0F172A" stroke="white" stroke-opacity="0.12"/>
  <rect x="305" y="542" width="210" height="92" rx="16" fill="#111827" stroke="white" stroke-opacity="0.08"/>
  <rect x="228" y="648" width="364" height="20" rx="10" fill="#1E293B"/>
  <circle cx="410" cy="588" r="10" fill="#818CF8"/>

  <rect x="216" y="694" width="388" height="1" fill="url(#stroke)" fill-opacity="0.4"/>
  <text x="410" y="732" fill="white" font-family="Sora, Arial, sans-serif" font-size="22" font-weight="700" text-anchor="middle">Sharvari Karnase</text>
  <text x="410" y="764" fill="#CBD5E1" font-family="Outfit, Arial, sans-serif" font-size="16" font-weight="500" text-anchor="middle">Full Stack Java Developer</text>
</svg>
