<svg width="1200" height="720" viewBox="0 0 1200 720" fill="none" xmlns="http://www.w3.org/2000/svg">
  <defs>
    <linearGradient id="panel" x1="90" y1="80" x2="1090" y2="626" gradientUnits="userSpaceOnUse">
      <stop stop-color="#24121D"/>
      <stop offset="1" stop-color="#0A1020"/>
    </linearGradient>
    <linearGradient id="accent" x1="142" y1="132" x2="1018" y2="596" gradientUnits="userSpaceOnUse">
      <stop stop-color="#FB923C"/>
      <stop offset="0.5" stop-color="#EC4899"/>
      <stop offset="1" stop-color="#D946EF"/>
    </linearGradient>
    <filter id="blur" x="12" y="-24" width="1176" height="778" filterUnits="userSpaceOnUse" color-interpolation-filters="sRGB">
      <feGaussianBlur stdDeviation="58"/>
    </filter>
  </defs>

  <rect width="1200" height="720" rx="42" fill="#050816"/>
  <g opacity="0.7" filter="url(#blur)">
    <circle cx="244" cy="180" r="134" fill="#FB923C"/>
    <circle cx="968" cy="182" r="146" fill="#EC4899"/>
    <circle cx="746" cy="560" r="176" fill="#D946EF"/>
  </g>

  <rect x="90" y="80" width="1020" height="560" rx="42" fill="url(#panel)" stroke="url(#accent)" stroke-opacity="0.35" stroke-width="2"/>
  <text x="132" y="176" fill="white" font-family="Sora, Arial, sans-serif" font-size="50" font-weight="700">QuickEats</text>
  <text x="132" y="218" fill="#E2E8F0" font-family="Outfit, Arial, sans-serif" font-size="24">Responsive ordering with warm, fast-moving interactions.</text>

  <rect x="132" y="280" width="294" height="286" rx="34" fill="#0B1224" stroke="white" stroke-opacity="0.08"/>
  <circle cx="278" cy="370" r="74" fill="#1E293B"/>
  <rect x="220" y="334" width="116" height="20" rx="10" fill="#F59E0B"/>
  <rect x="210" y="358" width="136" height="18" rx="9" fill="#FCD34D"/>
  <rect x="216" y="382" width="124" height="14" rx="7" fill="#BBF7D0"/>
  <rect x="224" y="404" width="108" height="20" rx="10" fill="#FB7185"/>
  <rect x="196" y="442" width="164" height="16" rx="8" fill="#F8FAFC"/>
  <rect x="214" y="470" width="128" height="12" rx="6" fill="#94A3B8"/>

  <rect x="470" y="258" width="578" height="328" rx="30" fill="#101828" stroke="white" stroke-opacity="0.08"/>
  <rect x="504" y="298" width="230" height="234" rx="26" fill="#111827"/>
  <rect x="534" y="330" width="170" height="20" rx="10" fill="#F8FAFC"/>
  <rect x="534" y="364" width="132" height="14" rx="7" fill="#CBD5E1"/>
  <rect x="534" y="408" width="124" height="46" rx="18" fill="url(#accent)"/>
  <rect x="534" y="468" width="94" height="14" rx="7" fill="#94A3B8"/>

  <rect x="766" y="298" width="248" height="104" rx="24" fill="#111827"/>
  <circle cx="812" cy="350" r="20" fill="url(#accent)"/>
  <rect x="846" y="334" width="132" height="12" rx="6" fill="#F8FAFC"/>
  <rect x="846" y="358" width="110" height="10" rx="5" fill="#94A3B8"/>

  <rect x="766" y="426" width="248" height="106" rx="24" fill="#111827"/>
  <path d="M814 482H930" stroke="#F8FAFC" stroke-width="12" stroke-linecap="round"/>
  <path d="M814 452H868" stroke="#94A3B8" stroke-width="10" stroke-linecap="round"/>
  <circle cx="968" cy="480" r="22" fill="#FB923C"/>
  <path d="M972 468L980 478L994 460" stroke="#0B1224" stroke-width="8" stroke-linecap="round" stroke-linejoin="round"/>
</svg>
