<svg width="1200" height="720" viewBox="0 0 1200 720" fill="none" xmlns="http://www.w3.org/2000/svg">
  <defs>
    <linearGradient id="panel" x1="86" y1="86" x2="1114" y2="634" gradientUnits="userSpaceOnUse">
      <stop stop-color="#141B35"/>
      <stop offset="1" stop-color="#080D1D"/>
    </linearGradient>
    <linearGradient id="accent" x1="120" y1="146" x2="994" y2="578" gradientUnits="userSpaceOnUse">
      <stop stop-color="#D946EF"/>
      <stop offset="0.5" stop-color="#6366F1"/>
      <stop offset="1" stop-color="#38BDF8"/>
    </linearGradient>
    <filter id="blur" x="8" y="-28" width="1184" height="792" filterUnits="userSpaceOnUse" color-interpolation-filters="sRGB">
      <feGaussianBlur stdDeviation="60"/>
    </filter>
  </defs>

  <rect width="1200" height="720" rx="42" fill="#050816"/>
  <g opacity="0.75" filter="url(#blur)">
    <circle cx="266" cy="150" r="126" fill="#D946EF"/>
    <circle cx="908" cy="164" r="152" fill="#6366F1"/>
    <circle cx="714" cy="548" r="180" fill="#0EA5E9"/>
  </g>

  <rect x="86" y="86" width="1028" height="548" rx="40" fill="url(#panel)" stroke="url(#accent)" stroke-opacity="0.35" stroke-width="2"/>
  <text x="126" y="178" fill="white" font-family="Sora, Arial, sans-serif" font-size="52" font-weight="700">Velora</text>
  <text x="126" y="220" fill="#CBD5E1" font-family="Outfit, Arial, sans-serif" font-size="24">Secure commerce. Elegant user journeys.</text>

  <rect x="126" y="284" width="406" height="250" rx="28" fill="#0F172A" stroke="white" stroke-opacity="0.08"/>
  <rect x="154" y="314" width="138" height="190" rx="20" fill="#1E293B"/>
  <rect x="170" y="336" width="106" height="76" rx="16" fill="url(#accent)" fill-opacity="0.7"/>
  <rect x="170" y="430" width="78" height="12" rx="6" fill="#F8FAFC"/>
  <rect x="170" y="452" width="104" height="10" rx="5" fill="#94A3B8"/>
  <rect x="170" y="474" width="62" height="18" rx="9" fill="#0EA5E9" fill-opacity="0.65"/>

  <rect x="310" y="314" width="194" height="92" rx="20" fill="#111827"/>
  <rect x="330" y="336" width="114" height="10" rx="5" fill="#F8FAFC"/>
  <rect x="330" y="360" width="140" height="10" rx="5" fill="#94A3B8"/>
  <rect x="330" y="384" width="86" height="18" rx="9" fill="#6366F1" fill-opacity="0.55"/>

  <rect x="310" y="428" width="194" height="76" rx="20" fill="#111827"/>
  <circle cx="352" cy="466" r="18" fill="#D946EF" fill-opacity="0.65"/>
  <rect x="382" y="452" width="90" height="10" rx="5" fill="#F8FAFC"/>
  <rect x="382" y="474" width="68" height="10" rx="5" fill="#94A3B8"/>

  <rect x="606" y="244" width="420" height="314" rx="30" fill="#0B1224" stroke="white" stroke-opacity="0.08"/>
  <text x="640" y="294" fill="#F8FAFC" font-family="Sora, Arial, sans-serif" font-size="30" font-weight="600">Cart &amp; Order Flow</text>
  <rect x="640" y="324" width="352" height="80" rx="22" fill="#111827"/>
  <circle cx="688" cy="364" r="22" fill="url(#accent)"/>
  <rect x="726" y="350" width="132" height="10" rx="5" fill="#F8FAFC"/>
  <rect x="726" y="372" width="176" height="10" rx="5" fill="#94A3B8"/>

  <rect x="640" y="430" width="352" height="16" rx="8" fill="#1E293B"/>
  <rect x="640" y="430" width="256" height="16" rx="8" fill="url(#accent)"/>
  <rect x="640" y="470" width="168" height="52" rx="18" fill="#6366F1"/>
  <rect x="824" y="470" width="168" height="52" rx="18" fill="#38BDF8"/>
</svg>
